<?xml version="1.0" standalone="no"?>
<!DOCTYPE svg PUBLIC "-//W3C//DTD SVG 1.1//EN" "http://www.w3.org/Graphics/SVG/1.1/DTD/svg11.dtd" >
<svg xmlns="http://www.w3.org/2000/svg">
<metadata>Generated by IcoMoon</metadata>
<defs>
<font id="jfxicons" horiz-adv-x="1024">
<font-face units-per-em="1024" ascent="960" descent="-64" />
<missing-glyph horiz-adv-x="1024" />
<glyph unicode="&#x20;" horiz-adv-x="512" d="" />
<glyph unicode="&#xe900;" glyph-name="document-download" d="M828.8 886.4h-401.6c-11.2 0-20.8-4.8-27.2-11.2l-232-233.6c-8-8-12.8-17.6-12.8-28.8v-564.8c0-20.8 17.6-38.4 38.4-38.4h635.2c20.8 0 38.4 17.6 38.4 38.4v798.4c1.6 22.4-16 40-38.4 40zM408 772.8v-139.2h-139.2l139.2 139.2zM790.4 88h-556.8v507.2h195.2c11.2 0 19.2 8 19.2 19.2v193.6h342.4v-720zM473.6 292.8l-48 48c-8 8-17.6 11.2-27.2 11.2s-19.2-4.8-27.2-11.2c-16-16-16-40 0-54.4l115.2-115.2c16-16 40-16 54.4 0l113.6 115.2c16 16 16 40 0 54.4-16 16-40 16-54.4 0l-48-48v203.2c0 20.8-17.6 38.4-38.4 38.4s-38.4-17.6-38.4-38.4v-203.2z" />
<glyph unicode="&#xe901;" glyph-name="settings" d="M998.4 363.2c4.8 27.2 6.4 56 6.4 84.8s-3.2 57.6-6.4 84.8l-97.6 35.2c-6.4 24-17.6 48-28.8 70.4l44.8 92.8c-32 46.4-73.6 88-120 120l-92.8-44.8c-22.4 11.2-46.4 20.8-70.4 28.8l-35.2 97.6c-27.2 4.8-56 6.4-84.8 6.4s-57.6-3.2-84.8-6.4l-35.2-97.6c-24-6.4-48-17.6-70.4-28.8l-94.4 44.8c-46.4-32-86.4-73.6-120-120l43.2-92.8c-11.2-22.4-20.8-46.4-28.8-70.4l-97.6-35.2c-4.8-27.2-6.4-56-6.4-84.8s3.2-57.6 6.4-84.8l97.6-35.2c6.4-24 17.6-48 28.8-70.4l-44.8-92.8c32-46.4 73.6-88 120-120l92.8 44.8c22.4-11.2 46.4-20.8 70.4-28.8l35.2-97.6c27.2-4.8 56-6.4 84.8-6.4s57.6 3.2 84.8 6.4l35.2 97.6c24 6.4 48 17.6 70.4 28.8l92.8-44.8c46.4 32 88 73.6 120 120l-44.8 92.8c11.2 22.4 20.8 46.4 28.8 70.4l100.8 35.2zM526.4 168c-166.4-8-304 128-296 296 6.4 142.4 123.2 257.6 265.6 265.6 166.4 8 302.4-128 296-294.4-6.4-145.6-121.6-260.8-265.6-267.2z" />
<glyph unicode="&#xe902;" glyph-name="save" d="M777.6 907.2h-646.4c-43.2 0-78.4-35.2-78.4-78.4v-761.6c0-43.2 35.2-78.4 78.4-78.4h761.6c43.2 0 78.4 35.2 78.4 78.4v640l-193.6 200zM504 92.8c-86.4 0-155.2 70.4-155.2 155.2s70.4 155.2 155.2 155.2 155.2-70.4 155.2-155.2-68.8-155.2-155.2-155.2zM659.2 595.2h-508.8v203.2h508.8v-203.2z" />
<glyph unicode="&#xe903;" glyph-name="logout" d="M776 232v-144h-640v672h640v-144h1.6l88-51.2v217.6c-1.6 36.8-30.4 65.6-67.2 65.6h-684.8c-36.8 0-65.6-28.8-65.6-65.6v-715.2c0-38.4 28.8-67.2 65.6-67.2h684.8c36.8 0 65.6 28.8 65.6 65.6v217.6l-88-51.2zM950.4 448l-86.4 51.2-88 51.2-161.6 92.8c-19.2 11.2-43.2-3.2-43.2-25.6v-78.4h-161.6c-11.2 0-19.2-8-19.2-19.2v-195.2c0-11.2 9.6-20.8 19.2-20.8h161.6v-76.8c0-22.4 24-35.2 43.2-25.6l161.6 92.8 88 51.2 86.4 49.6c19.2 14.4 19.2 41.6 0 52.8z" />
<glyph unicode="&#xe904;" glyph-name="help" d="M512 937.6c-270.4 0-489.6-219.2-489.6-489.6s219.2-489.6 489.6-489.6 489.6 219.2 489.6 489.6-219.2 489.6-489.6 489.6zM580.8 56h-136v136h136v-136zM742.4 524.8c-16-28.8-46.4-62.4-92.8-104-35.2-32-49.6-48-56-56-8-11.2-14.4-24-17.6-38.4-4.8-14.4-6.4-40-6.4-75.2v-16h-118.4v16c0 12.8 0 20.8 0 27.2 0 36.8 4.8 70.4 16 99.2 8 20.8 20.8 41.6 38.4 64 12.8 16 35.2 36.8 67.2 65.6 30.4 27.2 49.6 48 57.6 62.4s12.8 28.8 12.8 46.4c0 30.4-11.2 57.6-36.8 81.6-24 24-54.4 35.2-91.2 35.2-35.2 0-62.4-11.2-86.4-32s-38.4-56-46.4-104l-1.6-16-124.8 16 1.6 16c9.6 72 35.2 129.6 80 168 44.8 40 104 59.2 176 59.2 76.8 0 137.6-20.8 184-64s70.4-94.4 70.4-155.2c-1.6-33.6-9.6-65.6-25.6-96z" />
<glyph unicode="&#xe905;" glyph-name="info" d="M512 928c-264 0-480-216-480-480s214.4-480 480-480 480 214.4 480 480-216 480-480 480zM504 769.6c19.2 0 36.8-8 51.2-20.8 12.8-12.8 19.2-30.4 17.6-51.2-1.6-44.8-35.2-67.2-68.8-67.2-19.2 0-38.4 8-51.2 20.8s-19.2 30.4-17.6 49.6c1.6 46.4 35.2 68.8 68.8 68.8zM636.8 155.2h-249.6v75.2h51.2c1.6 0 6.4 1.6 8 3.2l1.6 1.6c3.2 3.2 3.2 14.4 3.2 22.4v240h-59.2v75.2l182.4 3.2v-320c0-6.4 0-17.6 1.6-20.8l3.2-3.2c1.6-1.6 3.2-3.2 12.8-3.2h44.8v-73.6z" />
<glyph unicode="&#xe906;" glyph-name="drop-down-arrow" d="M512 120.32l445.44 436.224h-890.88z" />
<glyph unicode="&#xe907;" glyph-name="edit" d="M347.2 419.2l-32-153.6c-1.6-9.6 6.4-17.6 16-16l153.6 32c1.6 1.6 4.8 1.6 6.4 3.2l329.6 329.6c3.2 3.2 3.2 6.4 0 9.6l-131.2 131.2c-3.2 3.2-6.4 3.2-9.6 0l-329.6-328c-1.6-3.2-1.6-4.8-3.2-8zM862.4 345.6h-56c-11.2 0-19.2-8-19.2-19.2v-264h-660.8v660.8h217.6c11.2 0 19.2 8 19.2 19.2v56c0 11.2-8 19.2-19.2 19.2h-265.6c-25.6 0-46.4-20.8-46.4-48v-755.2c0-25.6 20.8-46.4 46.4-46.4h755.2c25.6 0 46.4 20.8 46.4 46.4v312c1.6 11.2-6.4 19.2-17.6 19.2zM966.4 809.6l-92.8 92.8c-12.8 12.8-33.6 12.8-46.4 0l-68.8-68.8c-3.2-3.2-3.2-9.6 0-12.8l126.4-126.4c3.2-3.2 9.6-3.2 12.8 0l68.8 68.8c12.8 11.2 12.8 32 0 46.4z" />
<glyph unicode="&#xe908;" glyph-name="download" d="M512 166.4l312 388.8h-163.2v356.8h-297.6v-356.8h-163.2zM886.4 348.8v-251.2h-748.8v251.2h-113.6v-364.8h976v364.8z" />
<glyph unicode="&#xe909;" glyph-name="dots-6" d="M464 736c0-44.183-35.817-80-80-80s-80 35.817-80 80c0 44.183 35.817 80 80 80s80-35.817 80-80zM464 448c0-44.183-35.817-80-80-80s-80 35.817-80 80c0 44.183 35.817 80 80 80s80-35.817 80-80zM464 160c0-44.183-35.817-80-80-80s-80 35.817-80 80c0 44.183 35.817 80 80 80s80-35.817 80-80zM720 736c0-44.183-35.817-80-80-80s-80 35.817-80 80c0 44.183 35.817 80 80 80s80-35.817 80-80zM720 448c0-44.183-35.817-80-80-80s-80 35.817-80 80c0 44.183 35.817 80 80 80s80-35.817 80-80zM720 160c0-44.183-35.817-80-80-80s-80 35.817-80 80c0 44.183 35.817 80 80 80s80-35.817 80-80z" />
<glyph unicode="&#xe90a;" glyph-name="dots-3" d="M592 736c0-44.183-35.817-80-80-80s-80 35.817-80 80c0 44.183 35.817 80 80 80s80-35.817 80-80zM592 448c0-44.183-35.817-80-80-80s-80 35.817-80 80c0 44.183 35.817 80 80 80s80-35.817 80-80zM592 160c0-44.183-35.817-80-80-80s-80 35.817-80 80c0 44.183 35.817 80 80 80s80-35.817 80-80z" />
<glyph unicode="&#xe90b;" glyph-name="sorter-asc" d="M521.6 488l-244.8 256c-8 8-22.4 8-28.8 0l-243.2-256c-8-8-8-22.4 1.6-28.8l40-38.4c8-8 22.4-8 28.8 1.6l142.4 148.8v-404.8c0-11.2 8-20.8 20.8-20.8h56c11.2 0 20.8 8 20.8 20.8v403.2l142.4-148.8c8-8 20.8-8 28.8-1.6l40 38.4c3.2 9.6 3.2 20.8-4.8 30.4zM622.4 430.4h387.2c8 0 14.4-6.4 14.4-14.4v-38.4c0-8-6.4-14.4-14.4-14.4h-387.2c-8 0-14.4 6.4-14.4 14.4v38.4c0 8 6.4 14.4 14.4 14.4zM620.8 585.6h326.4c8 0 12.8-6.4 12.8-12.8v-40c0-8-6.4-12.8-12.8-12.8h-326.4c-8 0-12.8 6.4-12.8 12.8v40c-1.6 6.4 4.8 12.8 12.8 12.8zM619.2 740.8h248c6.4 0 11.2-4.8 11.2-11.2v-43.2c0-6.4-4.8-11.2-11.2-11.2h-248c-6.4 0-11.2 4.8-11.2 11.2v43.2c0 6.4 4.8 11.2 11.2 11.2z" />
<glyph unicode="&#xe90c;" glyph-name="sorter-desc" d="M6.4 408l244.8-256c8-8 22.4-8 28.8 0l243.2 256c8 8 8 22.4-1.6 28.8l-40 38.4c-8 8-22.4 8-28.8-1.6l-142.4-148.8v404.8c0 11.2-8 20.8-20.8 20.8h-56c-11.2 0-20.8-8-20.8-20.8v-403.2l-142.4 148.8c-8 8-20.8 8-28.8 1.6l-40-38.4c-3.2-9.6-3.2-20.8 4.8-30.4zM1009.6 673.6h-387.2c-8 0-14.4 6.4-14.4 14.4v38.4c0 8 6.4 14.4 14.4 14.4h387.2c8 0 14.4-6.4 14.4-14.4v-38.4c0-8-6.4-14.4-14.4-14.4zM947.2 518.4h-326.4c-8 0-12.8 6.4-12.8 12.8v40c0 8 6.4 12.8 12.8 12.8h326.4c8 0 12.8-6.4 12.8-12.8v-40c1.6-6.4-4.8-12.8-12.8-12.8zM867.2 363.2h-248c-6.4 0-11.2 4.8-11.2 11.2v43.2c0 6.4 4.8 11.2 11.2 11.2h248c6.4 0 11.2-4.8 11.2-11.2v-43.2c0-6.4-4.8-11.2-11.2-11.2z" />
<glyph unicode="&#xe90d;" glyph-name="warning" d="M1000 78.4l-452.8 782.4c-16 27.2-56 27.2-72 0l-451.2-782.4c-16-27.2 4.8-62.4 35.2-62.4h902.4c33.6 1.6 52.8 35.2 38.4 62.4zM512 667.2c44.8 0 67.2-28.8 67.2-88 0-36.8-6.4-92.8-19.2-164.8-12.8-73.6-20.8-115.2-25.6-126.4s-12.8-16-22.4-16c-11.2 0-19.2 4.8-22.4 14.4-4.8 9.6-12.8 48-25.6 116.8s-19.2 128-19.2 176c-1.6 59.2 20.8 88 67.2 88zM561.6 118.4c-12.8-14.4-30.4-20.8-49.6-20.8s-36.8 6.4-51.2 20.8c-14.4 14.4-20.8 30.4-20.8 49.6s6.4 36.8 20.8 49.6c14.4 14.4 30.4 20.8 51.2 20.8 19.2 0 36.8-6.4 49.6-20.8 14.4-14.4 20.8-30.4 20.8-49.6s-6.4-36.8-20.8-49.6z" />
<glyph unicode="&#xe90e;" glyph-name="check-thicker2" d="M774.4 916.8l-356.8-560-187.2 217.6-171.2-147.2 384-448 521.6 816z" />
<glyph unicode="&#xe90f;" glyph-name="compare3" d="M545.6 256v43.2h-376v-43.2h232zM825.6 787.2h-201.6l-102.4 116.8h-465.6v-796.8h304v-116.8h608v635.2l-142.4 161.6zM808 745.6l115.2-132.8h-115.2v132.8zM504 862.4l65.6-75.2 36.8-41.6 14.4-16h-115.2v132.8zM97.6 148.8v715.2h364.8v-174.4h160v-537.6h-524.8zM926.4 32h-524.8v75.2h264v32h182.4v41.6h-184v100.8h184v41.6h-184v100.8h187.2v41.6h-187.2v276.8l-3.2 4.8h105.6v-174.4h160v-540.8zM401.6 400h144v43.2h-376v-43.2h190.4zM401.6 544h147.2v41.6h-376v-41.6h187.2z" />
<glyph unicode="&#xe910;" glyph-name="compare3-JFX" d="M822.4 758.4h-142.4l-142.4 142.4h-502.4v-763.2h286.4v-142.4h667.2v595.2l-166.4 168zM560 329.6v-48h-382.4v48h382.4zM177.6 424v48h382.4v-48h-382.4zM177.6 566.4v48h382.4v-48h-382.4zM516.8 852.8l139.2-139.2v-4.8h-144v144h4.8zM940.8 43.2h-571.2v96h334.4v571.2h96v-142.4h142.4v-524.8zM702.4 472h142.4v-48h-142.4v48zM702.4 329.6h142.4v-48h-142.4v48zM702.4 185.6h142.4v-48h-142.4v48z" />
<glyph unicode="&#xe911;" glyph-name="mail-wire" d="M964.8 139.2h-907.2c-11.2 0-20.8 9.6-20.8 20.8v577.6c0 11.2 9.6 20.8 20.8 20.8h908.8c11.2 0 20.8-9.6 20.8-20.8v-577.6c-1.6-12.8-11.2-20.8-22.4-20.8zM944 179.2l-11.2 32-308.8 212.8-96-65.6c-9.6-6.4-24-6.4-33.6 0l-96 65.6-307.2-212.8-12.8-32h865.6zM660.8 451.2l284.8-196.8v388.8l-284.8-192zM76.8 643.2v-390.4l284.8 196.8-284.8 193.6zM494.4 408c9.6-6.4 24-6.4 33.6 0l401.6 273.6 14.4 33.6h-867.2l9.6-30.4 408-276.8z" />
<glyph unicode="&#xe912;" glyph-name="mail" d="M934.4 740.8h-844.8c-11.2 0-22.4-4.8-28.8-11.2l422.4-347.2c17.6-14.4 44.8-14.4 62.4 0l422.4 347.2c-11.2 6.4-20.8 11.2-33.6 11.2zM545.6 324.8c-17.6-16-48-16-65.6 0l-435.2 358.4v-483.2c0-24 19.2-43.2 43.2-43.2h846.4c24 0 43.2 19.2 43.2 43.2v483.2l-432-358.4zM315.2 388.8l-204.8-195.2c-3.2-3.2-8-4.8-12.8-4.8s-9.6 1.6-12.8 6.4c-6.4 8-6.4 19.2 0 25.6l204.8 195.2c8 6.4 19.2 6.4 25.6 0 6.4-9.6 6.4-20.8 0-27.2zM940.8 193.6c-3.2-3.2-8-6.4-12.8-6.4s-9.6 1.6-12.8 4.8l-206.4 195.2c-8 6.4-8 19.2 0 25.6 6.4 8 19.2 8 25.6 0l204.8-195.2c8-4.8 8-16 1.6-24z" />
<glyph unicode="&#xe913;" glyph-name="maximize" d="M705.6 912v-96h123.2l-393.6-393.6 67.2-67.2 393.6 393.6v-123.2h96v286.4zM801.6 52.8h-667.2v668.8h428.8v94.4h-524.8v-857.6h857.6v524.8h-94.4z" />
<glyph unicode="&#xe914;" glyph-name="lock2" d="M801.6 515.2v124.8c0 160-129.6 289.6-289.6 289.6s-289.6-129.6-289.6-288v-124.8c-44.8-1.6-81.6-36.8-81.6-81.6v-371.2c0-44.8 36.8-83.2 83.2-83.2h576c44.8 0 83.2 36.8 83.2 83.2v369.6c-1.6 44.8-36.8 81.6-81.6 81.6zM512 814.4c96 0 174.4-78.4 174.4-174.4v-124.8h-348.8v124.8c0 97.6 78.4 174.4 174.4 174.4zM603.2 76.8h-182.4l49.6 132.8c-40 17.6-67.2 56-67.2 100.8 0 60.8 49.6 110.4 110.4 110.4s110.4-49.6 110.4-110.4c0-44.8-27.2-84.8-67.2-100.8l46.4-132.8z" />
<glyph unicode="&#xe915;" glyph-name="report" d="M841.6 902.4h-416c-11.2 0-20.8-4.8-28.8-12.8l-241.6-241.6c-8-8-11.2-17.6-11.2-28.8v-585.6c0-22.4 17.6-40 40-40h657.6c22.4 0 40 17.6 40 40v827.2c0 22.4-19.2 41.6-40 41.6zM404.8 784v-144h-144l144 144zM801.6 75.2h-577.6v524.8h201.6c11.2 0 20.8 9.6 20.8 20.8v200h355.2v-745.6zM705.6 208h-236.8c-11.2 0-20.8-9.6-20.8-20.8s9.6-20.8 20.8-20.8h236.8c11.2 0 20.8 9.6 20.8 20.8s-9.6 20.8-20.8 20.8zM724.8 284.8c0 11.2-9.6 20.8-20.8 20.8h-392c-11.2 0-19.2-9.6-20.8-20.8 0-11.2 9.6-20.8 20.8-20.8h392c12.8 0 20.8 9.6 20.8 20.8zM312 361.6h392c11.2 0 20.8 9.6 20.8 20.8s-9.6 20.8-20.8 20.8h-392c-11.2 0-19.2-9.6-20.8-20.8 1.6-11.2 9.6-20.8 20.8-20.8zM540.8 459.2h164.8c11.2 0 20.8 9.6 20.8 20.8s-9.6 20.8-20.8 20.8h-164.8c-11.2 0-20.8-9.6-20.8-20.8 1.6-11.2 9.6-20.8 20.8-20.8z" />
<glyph unicode="&#xe916;" glyph-name="chat2" d="M268.8 323.2l-6.4 1.6h-4.8c-6.4 0-19.2 0-86.4-35.2l22.4 64-17.6 14.4c-62.4 43.2-96 99.2-96 160 0 121.6 139.2 220.8 308.8 220.8 92.8 0 176-30.4 232-75.2 14.4 1.6 28.8 1.6 43.2 1.6s30.4-1.6 44.8-1.6c-65.6 83.2-184 139.2-320 139.2-206.4-1.6-372.8-129.6-372.8-284.8 0-73.6 38.4-145.6 104-196.8l-64-177.6 73.6 43.2c48 27.2 107.2 59.2 128 67.2 27.2-8 56-12.8 84.8-16-17.6 20.8-30.4 44.8-38.4 68.8-11.2 0-24 3.2-35.2 6.4zM1003.2 390.4c0 139.2-152 252.8-340.8 252.8s-340.8-113.6-340.8-252.8 152-252.8 340.8-252.8c44.8 0 88 6.4 128 19.2 12.8 4.8 145.6-72 145.6-72l-43.2 120c67.2 46.4 110.4 112 110.4 185.6zM846.4 308.8h-352v32h350.4v-32zM846.4 374.4h-352v32h350.4v-32zM846.4 441.6h-352v32h350.4v-32z" />
<glyph unicode="&#xe917;" glyph-name="chat" d="M846.4 849.6h-668.8c-70.4 0-128-57.6-128-128v-353.6c0-70.4 57.6-128 128-128h105.6l-134.4-193.6 388.8 195.2h308.8c70.4 0 128 57.6 128 128v352c0 70.4-57.6 128-128 128zM315.2 488c-30.4 0-54.4 24-54.4 54.4s24 54.4 54.4 54.4 54.4-24 54.4-54.4-25.6-54.4-54.4-54.4zM512 488c-30.4 0-54.4 24-54.4 54.4s24 54.4 54.4 54.4c30.4 0 54.4-24 54.4-54.4s-24-54.4-54.4-54.4zM710.4 488c-30.4 0-54.4 24-54.4 54.4s24 54.4 54.4 54.4c30.4 0 54.4-24 54.4-54.4s-24-54.4-54.4-54.4z" />
<glyph unicode="&#xe918;" glyph-name="alert-notification" d="M894.4 945.6h-764.8c-33.6 0-59.2-27.2-59.2-60.8v-680c0-33.6 25.6-60.8 59.2-60.8h257.6l104-182.4c9.6-16 30.4-16 40 0l105.6 182.4h257.6c33.6 0 60.8 27.2 60.8 60.8v680c-1.6 33.6-27.2 60.8-60.8 60.8zM590.4 793.6l-22.4-339.2h-112l-22.4 339.2h156.8zM512 254.4c-52.8 0-88 35.2-88 81.6 0 48 36.8 81.6 88 81.6s86.4-33.6 88-81.6c0-48-33.6-81.6-88-81.6z" />
<glyph unicode="&#xe919;" glyph-name="addicon-full" d="M512 952c-275.2 0-499.2-224-499.2-499.2s224-499.2 499.2-499.2 499.2 224 499.2 499.2-224 499.2-499.2 499.2zM825.6 414.4h-275.2v-276.8h-75.2v276.8h-276.8v75.2h276.8v276.8h75.2v-276.8h276.8v-75.2z" />
<glyph unicode="&#xe91a;" glyph-name="addicon" d="M1024 508.8h-451.2v451.2h-121.6v-451.2h-451.2v-121.6h451.2v-451.2h121.6v451.2h451.2z" />
<glyph unicode="&#xe91b;" glyph-name="reveal" d="M76.8 336l-76.8 32c86.4 208 288 342.4 512 342.4s425.6-134.4 512-342.4l-76.8-32c-73.6 176-244.8 291.2-435.2 291.2s-361.6-113.6-435.2-291.2zM662.4 401.6c0-83.064-67.336-150.4-150.4-150.4s-150.4 67.336-150.4 150.4c0 83.064 67.336 150.4 150.4 150.4s150.4-67.336 150.4-150.4z" />
<glyph unicode="&#xe91c;" glyph-name="hide" d="M776 193.6l-36.8-36.8-128 128c-27.2-24-60.8-38.4-99.2-38.4-83.2 0-150.4 67.2-150.4 150.4 0 38.4 14.4 73.6 38.4 99.2l-83.2 81.6c-105.6-48-192-134.4-240-248l-76.8 32c51.2 123.2 142.4 219.2 254.4 278.4l-62.4 62.4 36.8 36.8 547.2-545.6zM1024 364.8l-76.8-32c-73.6 176-244.8 291.2-435.2 291.2-27.2 0-54.4-1.6-81.6-6.4l-68.8 68.8c48 14.4 97.6 20.8 150.4 20.8 224-1.6 425.6-136 512-342.4zM662.4 396.8c0-4.8 0-8 0-12.8l-163.2 163.2c4.8 0 8 0 12.8 0 83.2 1.6 150.4-67.2 150.4-150.4z" />
<glyph unicode="&#xe91d;" glyph-name="home" d="M974.4 518.4l-142.4 107.2v209.6h-174.4v-80l-118.4 88c-8 6.4-17.6 9.6-25.6 9.6-9.6 0-19.2-3.2-25.6-9.6l-438.4-324.8c-16-11.2-22.4-30.4-16-49.6 6.4-17.6 22.4-30.4 41.6-30.4h65.6v-396.8h264v326.4h214.4v-324.8h264v396.8h65.6c19.2 0 36.8 12.8 41.6 30.4 6.4 17.6-1.6 36.8-16 48z" />
<glyph unicode="&#xe91e;" glyph-name="location" d="M515.2-64l-30.4 33.6c-3.2 3.2-81.6 88-160 200-108.8 155.2-164.8 280-164.8 372.8 0 107.2 36.8 198.4 105.6 262.4 62.4 59.2 152 91.2 249.6 91.2s187.2-32 249.6-91.2c68.8-64 105.6-155.2 105.6-262.4 0-92.8-56-217.6-164.8-371.2-78.4-112-156.8-196.8-160-200l-30.4-35.2zM515.2 812.8c-164.8 0-272-105.6-272-270.4 0-73.6 51.2-185.6 148.8-323.2 46.4-65.6 92.8-123.2 123.2-156.8 30.4 35.2 76.8 92.8 123.2 158.4 97.6 137.6 148.8 249.6 148.8 323.2 0 161.6-107.2 268.8-272 268.8zM641.6 563.2c0-68.8-56-126.4-126.4-126.4s-126.4 56-126.4 126.4c0 68.8 56 126.4 126.4 126.4s126.4-57.6 126.4-126.4z" />
<glyph unicode="&#xe91f;" glyph-name="search" d="M640 776c-128 128-334.4 128-462.4 0s-128-334.4 0-462.4c108.8-108.8 276.8-124.8 401.6-46.4l254.4-254.4 107.2 107.2-254.4 254.4c78.4 124.8 62.4 292.8-46.4 401.6zM577.6 376c-92.8-92.8-244.8-92.8-337.6 0s-92.8 244.8 0 337.6 244.8 92.8 337.6 0 92.8-244.8 0-337.6z" />
<glyph unicode="&#xe920;" glyph-name="arrow-down" d="M20.8 652.8l91.2 91.2 408-409.6 392 392 91.2-91.2-483.2-483.2z" />
<glyph unicode="&#xe921;" glyph-name="arrow-up" d="M1003.2 243.2l-91.2-91.2-408 409.6-392-392-91.2 91.2 483.2 483.2z" />
<glyph unicode="&#xe922;" glyph-name="arrow-left" d="M716.8 939.2l91.2-91.2-409.6-408 392-392-91.2-91.2-483.2 483.2z" />
<glyph unicode="&#xe923;" glyph-name="arrow-right" d="M307.2-43.2l-91.2 91.2 409.6 408-392 392 91.2 91.2 483.2-483.2z" />
<glyph unicode="&#xe924;" glyph-name="run" d="M916.8 448l-809.6 467.2v-934.4z" />
<glyph unicode="&#xe925;" glyph-name="restore" d="M664 448c0-54.787-44.413-99.2-99.2-99.2s-99.2 44.413-99.2 99.2c0 54.787 44.413 99.2 99.2 99.2s99.2-44.413 99.2-99.2zM201.6 286.4l-153.6 190.4h113.6c6.4 96 48 187.2 118.4 257.6 76.8 76.8 177.6 118.4 284.8 118.4s208-41.6 284.8-118.4 118.4-177.6 118.4-284.8-41.6-208-118.4-284.8-177.6-121.6-284.8-121.6c-75.2 0-147.2 20.8-211.2 59.2l43.2 70.4c49.6-30.4 108.8-48 168-48 177.6 0 321.6 144 321.6 321.6s-144 321.6-321.6 321.6c-168 0-305.6-129.6-320-292.8h112l-155.2-188.8z" />
<glyph unicode="&#xe926;" glyph-name="responsive-nav" d="M0 107.2h1024v113.6h-1024v-113.6zM0 390.4h1024v113.6h-1024v-113.6zM0 788.8v-113.6h1024v113.6c0 0-1024 0-1024 0z" />
<glyph unicode="&#xe927;" glyph-name="x-close3" d="M952 776l-112 112-328-328-328 328-112-112 328-328-328-328 112-112 328 328 328-328 112 112-328 328z" />
</font>
</defs>
</svg>
