<?xml version="1.0" encoding="utf-8"?>
<!-- Generator: Adobe Illustrator 27.4.1, SVG Export Plug-In . SVG Version: 6.00 Build 0)  -->
<svg version="1.1" id="Layer_1" xmlns="http://www.w3.org/2000/svg" xmlns:xlink="http://www.w3.org/1999/xlink" x="0px" y="0px"
	 viewBox="0 0 712.5 107" style="enable-background:new 0 0 712.5 107;" xml:space="preserve">
<style type="text/css">
	.st0{fill:#0080FF;}
	.st1{fill:#F7F7F7;}
</style>
<g>
	<path class="st0" d="M99.9,81h4.8v19.6H57.9V81H65l-1.9-9.6H46.9L45,81h7.2v19.6H11.3V81H16L36.2,7.7h43.5L99.9,81z M49.5,58.8h11
		L55.6,35h-1.2L49.5,58.8z"/>
	<path class="st0" d="M117.3,93.4c-6.4-5.9-9.6-14.6-9.6-26c0-11.4,3.2-20,9.6-26c6.4-5.9,15.2-8.9,26.5-8.9
		c5.5,0,10.8,0.8,15.8,2.3c5,1.5,8.9,3.2,11.7,5.1v23.7h-20.5v-2.2c0-2.6-0.6-4.6-1.7-5.8c-1.1-1.2-2.9-1.9-5.3-1.9
		c-4.6,0-6.9,2.5-6.9,7.6v10.3c0,6.2,3.5,9.3,10.6,9.3c6.6,0,14.3-0.7,23.1-2.1v18.8c-2.7,1.2-6.5,2.3-11.4,3.2
		c-4.9,1-10,1.4-15.2,1.4C132.6,102.3,123.7,99.3,117.3,93.4z"/>
	<path class="st0" d="M296,81v19.6h-37.7V81h5V61.4c0-2.6-0.6-4.6-1.7-5.8c-1.1-1.2-2.8-1.9-5-1.9c-4.8,0-7.2,2.5-7.2,7.6V81h5v19.6
		H217V81h5V61.4c0-2.6-0.6-4.6-1.7-5.8c-1.1-1.2-2.8-1.9-5-1.9c-4.8,0-7.2,2.5-7.2,7.6V81h5v19.6h-37.7V81h5.3V53.8h-5.3V34.2h32.7
		v9.3c5.7-7.3,12.9-11,21.5-11c4.9,0,8.8,1.1,11.9,3.4c3.1,2.3,5.2,5.5,6.5,9.6c2.9-4.1,6.2-7.3,9.9-9.6c3.7-2.2,8.1-3.3,13.1-3.3
		c6.6,0,11.6,2.1,14.9,6.2c3.3,4.1,5,9.8,5,17.1V81H296z"/>
	<path class="st0" d="M308.9,93.4c-6.4-5.9-9.6-14.6-9.6-26c0-11.4,3.2-20,9.6-26c6.4-5.9,15.2-8.9,26.5-8.9
		c11.2,0,19.3,2.9,24.3,8.8c5,5.9,7.5,13.1,7.5,21.8v8.6h-38.7v0.7c0,2.9,0.9,5.1,2.6,6.5c1.8,1.4,4.7,2.1,8.7,2.1
		c4.9,0,9.5-0.4,13.9-1.1c4.4-0.7,8.2-1.6,11.5-2.7v19.1c-2.8,1.5-6.9,2.9-12.2,4.1c-5.4,1.2-11.2,1.9-17.5,1.9
		C324.2,102.3,315.3,99.3,308.9,93.4z M342.4,58.5v-1.4c0-2.7-0.6-4.7-1.7-5.9c-1.2-1.2-2.9-1.8-5.2-1.8c-2.3,0-4,0.6-5.2,1.9
		c-1.2,1.2-1.7,3.2-1.7,5.8v1.4H342.4z"/>
	<path class="st0" d="M412.5,64.6v19.2l1.7,2.8h2.4l1.8-2.9V49.6c0-0.8,0.3-1.5,0.9-2.1c0.6-0.6,1.3-0.9,2.1-0.9
		c0.8,0,1.5,0.3,2,0.9c0.6,0.6,0.9,1.3,0.9,2v35.1c0,0.4-0.2,1-0.7,1.8l-2.7,4.4c-0.6,1-1.4,1.5-2.5,1.5h-5.4
		c-1.7,0-2.8-0.8-3.3-2.3c-0.5,1.6-1.6,2.3-3.2,2.3h-5.1c-1.5,0-2.5-0.5-3.2-1.6l-2.5-4.2c-0.5-0.8-0.7-1.4-0.7-2v-35
		c0-0.8,0.3-1.5,0.9-2.1c0.6-0.6,1.3-0.9,2.1-0.9c0.8,0,1.4,0.3,2,0.9c0.6,0.6,0.8,1.3,0.8,2.1v34.2l1.7,2.8h2.5l1.8-2.9V64.6
		c0-0.8,0.3-1.5,0.8-2c0.6-0.6,1.2-0.8,2-0.8c0.8,0,1.5,0.3,2,0.8C412.2,63.1,412.5,63.8,412.5,64.6z"/>
	<path class="st0" d="M460.9,92.3h-17.6c-0.8,0-1.5-0.3-2-0.8c-0.6-0.6-0.8-1.2-0.8-2c0-0.8,0.3-1.5,0.8-2c0.6-0.6,1.2-0.9,2-0.9
		h5.9V65h-5.8c-0.8,0-1.5-0.3-2-0.9c-0.6-0.6-0.8-1.2-0.8-2c0-0.8,0.3-1.5,0.8-2.1c0.6-0.6,1.2-0.9,2-0.9h8.8c0.8,0,1.5,0.3,2,0.9
		c0.6,0.6,0.8,1.3,0.8,2.1v24.5h5.8c0.8,0,1.5,0.3,2.1,0.8c0.6,0.6,0.9,1.2,0.9,2c0,0.8-0.3,1.5-0.9,2
		C462.4,92,461.7,92.3,460.9,92.3z M449.2,44.1h3c0.8,0,1.5,0.3,2,0.8c0.6,0.6,0.8,1.2,0.8,2v2.5c0,0.8-0.3,1.5-0.8,2.1
		c-0.6,0.6-1.2,0.9-2,0.9h-3.1c-0.8,0-1.5-0.3-2.1-0.9c-0.6-0.6-0.8-1.3-0.8-2l0.1-2.5c0-0.8,0.3-1.5,0.8-2
		C447.7,44.4,448.4,44.1,449.2,44.1z"/>
	<path class="st0" d="M503.4,63.2V49.6c0-0.8,0.3-1.5,0.8-2c0.6-0.6,1.2-0.8,2-0.8c0.8,0,1.5,0.3,2.1,0.8c0.6,0.6,0.9,1.2,0.9,2
		v39.9c0,0.8-0.3,1.5-0.9,2c-0.6,0.6-1.2,0.8-2,0.8c-0.8,0-1.5-0.3-2.1-0.8c-0.6-0.6-0.8-1.2-0.8-2v-1.3c-2.8,2.8-5.5,4.2-7.9,4.2
		h-4.9c-2,0-3.9-0.8-5.9-2.5l-2.4-2c-0.6-0.5-1.1-1.4-1.6-2.6c-0.5-1.2-0.7-2.4-0.7-3.5V69.9c0-1.3,0.3-2.6,0.8-3.8s1.2-2.1,1.9-2.8
		l2.4-2c1.7-1.5,3.7-2.2,6-2.2h4.2c2.3,0,4.3,0.8,6.2,2.4L503.4,63.2z M495,65h-4c-0.8,0-1.6,0.3-2.3,0.9l-1.9,1.6
		c-0.6,0.6-1,1.3-1,2.2V82c0,0.8,0.4,1.5,1.1,2.2l1.9,1.6c0.6,0.5,1.2,0.8,1.9,0.8h4.7c0.6,0,1.4-0.4,2.2-1.1l4.6-3.8
		c0.8-0.7,1.1-1.5,1.1-2.5V73c0-1.4-0.4-2.4-1.2-3.1l-4.7-4C496.9,65.3,496,65,495,65z"/>
	<path class="st0" d="M540.9,104.8h-12.5c-0.8,0-1.5-0.3-2-0.8c-0.6-0.6-0.8-1.2-0.8-2.1c0-0.8,0.3-1.5,0.8-2c0.6-0.6,1.2-0.8,2-0.8
		h12.5c0.8,0,1.5-0.3,2.1-0.9l2-1.7c0.7-0.5,1-1.2,1-2v-8.8c-2.7,2.7-5.3,4.1-7.9,4.1h-4.4c-2.3,0-4.4-0.8-6.2-2.4l-2.2-1.9
		c-0.7-0.6-1.3-1.5-1.8-2.6c-0.5-1.1-0.8-2.3-0.8-3.4v-9.6c0-1.4,0.3-2.6,0.8-3.9c0.5-1.2,1.1-2.1,1.8-2.7l2.4-2
		c1.7-1.5,3.7-2.2,6-2.2h4.2c2.3,0,4.3,0.8,6.2,2.4l2,1.7l-0.1-1.1c0-0.8,0.3-1.5,0.9-2c0.6-0.6,1.2-0.9,2-0.9
		c0.8,0,1.5,0.3,2.1,0.8c0.6,0.6,0.9,1.2,0.9,2v32.4c0,2.5-1,4.6-3,6.3l-2.3,2c-0.6,0.5-1.4,1-2.5,1.4
		C542.8,104.6,541.8,104.8,540.9,104.8z M537.6,64.9h-3.9c-0.8,0-1.7,0.3-2.4,1l-1.8,1.5c-0.7,0.6-1,1.4-1,2.3v9.6
		c0,0.8,0.4,1.5,1.1,2.2l1.9,1.7c0.6,0.5,1.2,0.8,1.9,0.8h4.7c0.7,0,1.4-0.3,2.3-1l4.6-3.9c0.7-0.6,1.1-1.4,1.1-2.3v-4.4
		c0-1.1-0.4-1.9-1.2-2.6l-4.7-4C539.4,65.2,538.5,64.9,537.6,64.9z"/>
	<path class="st0" d="M594.3,70.1v7c0,0.8-0.3,1.5-0.9,2c-0.6,0.6-1.2,0.9-2,0.9H571v1.7c0,1,0.4,1.8,1.3,2.5l1.7,1.4
		c0.9,0.7,1.8,1.1,2.6,1.1h14.9c0.8,0,1.5,0.3,2,0.8c0.6,0.6,0.9,1.2,0.9,2c0,0.8-0.3,1.5-0.9,2c-0.6,0.6-1.3,0.9-2,0.9h-15.2
		c-1,0-2.1-0.2-3.2-0.6c-1.1-0.4-1.9-0.9-2.5-1.3l-2.6-2.3c-0.8-0.6-1.5-1.5-2-2.7c-0.5-1.1-0.8-2.2-0.8-3.2V69.1
		c0-0.8,0.3-1.8,0.9-3.1c0.6-1.3,1.3-2.3,2.2-3l2.4-1.9c1.6-1.3,3.3-1.9,5.3-1.9h8.1c2,0,4,0.8,5.8,2.5l2.2,2.1
		C593.6,65.2,594.3,67.3,594.3,70.1z M571.1,69.6v4.5h17.5v-4c0-1.1-0.3-1.9-1-2.5l-1.7-1.5c-0.9-0.7-1.7-1.1-2.3-1.1h-7.3
		c-0.9,0-1.7,0.3-2.4,0.9l-1.7,1.4C571.5,68,571.1,68.7,571.1,69.6z"/>
	<path class="st0" d="M628.1,92.4h-5.8c-2.4,0-4.4-0.8-6.2-2.5c-1.7-1.7-2.6-3.7-2.6-6.1V65h-3c-0.8,0-1.5-0.3-2-0.8
		c-0.6-0.6-0.8-1.2-0.8-2.1c0-0.8,0.3-1.5,0.8-2c0.6-0.6,1.2-0.8,2-0.8h3v-7.1c0-0.8,0.3-1.5,0.8-2c0.6-0.6,1.2-0.8,2-0.8
		c0.8,0,1.4,0.3,2,0.9c0.6,0.6,0.9,1.3,0.9,2v7.1H631c0.8,0,1.5,0.3,2,0.9c0.6,0.6,0.9,1.3,0.9,2c0,0.8-0.3,1.5-0.9,2
		c-0.6,0.6-1.2,0.8-2,0.8h-11.7v18.7c0,0.8,0.3,1.5,0.9,2c0.6,0.6,1.3,0.9,2.1,0.9h5.6c1.5,0,2.6-0.8,3.1-2.5
		c0.5-1.7,1.5-2.5,2.9-2.5c0.8,0,1.5,0.3,2.1,0.8c0.5,0.6,0.8,1.3,0.8,2.1c0,1.7-0.8,3.5-2.5,5.2C632.7,91.5,630.6,92.4,628.1,92.4z
		"/>
	<path class="st0" d="M658.4,59.2h13.2c2.1,0,3.9,0.6,5.5,1.8c1.6,1.2,2.4,2.4,2.4,3.6c0,0.8-0.3,1.5-0.9,2
		c-0.6,0.5-1.2,0.8-1.9,0.8c-0.9,0-1.8-0.4-2.5-1.2c-0.8-0.8-1.5-1.2-2.4-1.2h-13.1c-1.3,0-1.9,0.5-1.9,1.6c0,0.8,0.4,1.3,1.3,1.7
		l15.4,6.8c1.6,0.7,2.8,1.8,3.8,3.3c1,1.5,1.5,3.2,1.5,5.1c0,2.5-0.9,4.6-2.6,6.3c-1.8,1.7-3.7,2.6-6,2.6h-11.7
		c-2,0-3.9-0.6-5.6-1.8c-1.7-1.2-2.6-2.4-2.6-3.5c0-0.8,0.3-1.4,0.8-2c0.6-0.6,1.3-0.9,2.2-0.9c0.7,0,1.5,0.4,2.4,1.2s2,1.2,3.6,1.2
		H670c0.8,0,1.6-0.3,2.1-1c0.6-0.7,0.9-1.4,0.9-2.3c0-1.3-0.6-2.2-1.9-2.8l-15.5-7c-1.5-0.7-2.6-1.6-3.4-2.9
		c-0.8-1.3-1.2-2.5-1.2-3.9c0-2.1,0.7-3.9,2.1-5.4S656.3,59.2,658.4,59.2z"/>
</g>
<g>
	<path class="st1" d="M94.9,74h4.8v19.6H52.9V74H60l-1.9-9.6H41.9L40,74h7.2v19.6H6.3V74H11L31.2,0.7h43.5L94.9,74z M44.5,51.8h11
		L50.6,28h-1.2L44.5,51.8z"/>
	<path class="st1" d="M112.3,86.4c-6.4-5.9-9.6-14.6-9.6-26c0-11.4,3.2-20,9.6-26c6.4-5.9,15.2-8.9,26.5-8.9
		c5.5,0,10.8,0.8,15.8,2.3c5,1.5,8.9,3.2,11.7,5.1v23.7h-20.5v-2.2c0-2.6-0.6-4.6-1.7-5.8c-1.1-1.2-2.9-1.9-5.3-1.9
		c-4.6,0-6.9,2.5-6.9,7.6v10.3c0,6.2,3.5,9.3,10.6,9.3c6.6,0,14.3-0.7,23.1-2.1v18.8c-2.7,1.2-6.5,2.3-11.4,3.2
		c-4.9,1-10,1.4-15.2,1.4C127.6,95.3,118.7,92.3,112.3,86.4z"/>
	<path class="st1" d="M291,74v19.6h-37.7V74h5V54.4c0-2.6-0.6-4.6-1.7-5.8c-1.1-1.2-2.8-1.9-5-1.9c-4.8,0-7.2,2.5-7.2,7.6V74h5v19.6
		H212V74h5V54.4c0-2.6-0.6-4.6-1.7-5.8c-1.1-1.2-2.8-1.9-5-1.9c-4.8,0-7.2,2.5-7.2,7.6V74h5v19.6h-37.7V74h5.3V46.8h-5.3V27.2h32.7
		v9.3c5.7-7.3,12.9-11,21.5-11c4.9,0,8.8,1.1,11.9,3.4c3.1,2.3,5.2,5.5,6.5,9.6c2.9-4.1,6.2-7.3,9.9-9.6c3.7-2.2,8.1-3.3,13.1-3.3
		c6.6,0,11.6,2.1,14.9,6.2c3.3,4.1,5,9.8,5,17.1V74H291z"/>
	<path class="st1" d="M303.9,86.4c-6.4-5.9-9.6-14.6-9.6-26c0-11.4,3.2-20,9.6-26c6.4-5.9,15.2-8.9,26.5-8.9
		c11.2,0,19.3,2.9,24.3,8.8c5,5.9,7.5,13.1,7.5,21.8v8.6h-38.7v0.7c0,2.9,0.9,5.1,2.6,6.5c1.8,1.4,4.7,2.1,8.7,2.1
		c4.9,0,9.5-0.4,13.9-1.1c4.4-0.7,8.2-1.6,11.5-2.7v19.1c-2.8,1.5-6.9,2.9-12.2,4.1c-5.4,1.2-11.2,1.9-17.5,1.9
		C319.2,95.3,310.3,92.3,303.9,86.4z M337.4,51.5v-1.4c0-2.7-0.6-4.7-1.7-5.9c-1.2-1.2-2.9-1.8-5.2-1.8c-2.3,0-4,0.6-5.2,1.9
		c-1.2,1.2-1.7,3.2-1.7,5.8v1.4H337.4z"/>
	<path class="st1" d="M407.5,57.6v19.2l1.7,2.8h2.4l1.8-2.9V42.6c0-0.8,0.3-1.5,0.9-2.1c0.6-0.6,1.3-0.9,2.1-0.9
		c0.8,0,1.5,0.3,2,0.9c0.6,0.6,0.9,1.3,0.9,2v35.1c0,0.4-0.2,1-0.7,1.8l-2.7,4.4c-0.6,1-1.4,1.5-2.5,1.5h-5.4
		c-1.7,0-2.8-0.8-3.3-2.3c-0.5,1.6-1.6,2.3-3.2,2.3h-5.1c-1.5,0-2.5-0.5-3.2-1.6l-2.5-4.2c-0.5-0.8-0.7-1.4-0.7-2v-35
		c0-0.8,0.3-1.5,0.9-2.1c0.6-0.6,1.3-0.9,2.1-0.9c0.8,0,1.4,0.3,2,0.9c0.6,0.6,0.8,1.3,0.8,2.1v34.2l1.7,2.8h2.5l1.8-2.9V57.6
		c0-0.8,0.3-1.5,0.8-2c0.6-0.6,1.2-0.8,2-0.8c0.8,0,1.5,0.3,2,0.8C407.2,56.1,407.5,56.8,407.5,57.6z"/>
	<path class="st1" d="M455.9,85.3h-17.6c-0.8,0-1.5-0.3-2-0.8c-0.6-0.6-0.8-1.2-0.8-2c0-0.8,0.3-1.5,0.8-2c0.6-0.6,1.2-0.9,2-0.9
		h5.9V58h-5.8c-0.8,0-1.5-0.3-2-0.9c-0.6-0.6-0.8-1.2-0.8-2c0-0.8,0.3-1.5,0.8-2.1c0.6-0.6,1.2-0.9,2-0.9h8.8c0.8,0,1.5,0.3,2,0.9
		c0.6,0.6,0.8,1.3,0.8,2.1v24.5h5.8c0.8,0,1.5,0.3,2.1,0.8c0.6,0.6,0.9,1.2,0.9,2c0,0.8-0.3,1.5-0.9,2
		C457.4,85,456.7,85.3,455.9,85.3z M444.2,37.1h3c0.8,0,1.5,0.3,2,0.8c0.6,0.6,0.8,1.2,0.8,2v2.5c0,0.8-0.3,1.5-0.8,2.1
		c-0.6,0.6-1.2,0.9-2,0.9h-3.1c-0.8,0-1.5-0.3-2.1-0.9c-0.6-0.6-0.8-1.3-0.8-2l0.1-2.5c0-0.8,0.3-1.5,0.8-2
		C442.7,37.4,443.4,37.1,444.2,37.1z"/>
	<path class="st1" d="M498.4,56.2V42.6c0-0.8,0.3-1.5,0.8-2c0.6-0.6,1.2-0.8,2-0.8c0.8,0,1.5,0.3,2.1,0.8c0.6,0.6,0.9,1.2,0.9,2
		v39.9c0,0.8-0.3,1.5-0.9,2c-0.6,0.6-1.2,0.8-2,0.8c-0.8,0-1.5-0.3-2.1-0.8c-0.6-0.6-0.8-1.2-0.8-2v-1.3c-2.8,2.8-5.5,4.2-7.9,4.2
		h-4.9c-2,0-3.9-0.8-5.9-2.5l-2.4-2c-0.6-0.5-1.1-1.4-1.6-2.6c-0.5-1.2-0.7-2.4-0.7-3.5V62.9c0-1.3,0.3-2.6,0.8-3.8
		c0.6-1.2,1.2-2.1,1.9-2.8l2.4-2c1.7-1.5,3.7-2.2,6-2.2h4.2c2.3,0,4.3,0.8,6.2,2.4L498.4,56.2z M490,58h-4c-0.8,0-1.6,0.3-2.3,0.9
		l-1.9,1.6c-0.6,0.6-1,1.3-1,2.2V75c0,0.8,0.4,1.5,1.1,2.2l1.9,1.6c0.6,0.5,1.2,0.8,1.9,0.8h4.7c0.6,0,1.4-0.4,2.2-1.1l4.6-3.8
		c0.8-0.7,1.1-1.5,1.1-2.5V66c0-1.4-0.4-2.4-1.2-3.1l-4.7-4C491.9,58.3,491,58,490,58z"/>
	<path class="st1" d="M535.9,97.8h-12.5c-0.8,0-1.5-0.3-2-0.8c-0.6-0.6-0.8-1.2-0.8-2.1c0-0.8,0.3-1.5,0.8-2c0.6-0.6,1.2-0.8,2-0.8
		h12.5c0.8,0,1.5-0.3,2.1-0.9l2-1.7c0.7-0.5,1-1.2,1-2v-8.8c-2.7,2.7-5.3,4.1-7.9,4.1h-4.4c-2.3,0-4.4-0.8-6.2-2.4l-2.2-1.9
		c-0.7-0.6-1.3-1.5-1.8-2.6c-0.5-1.1-0.8-2.3-0.8-3.4v-9.6c0-1.4,0.3-2.6,0.8-3.9c0.5-1.2,1.1-2.1,1.8-2.7l2.4-2
		c1.7-1.5,3.7-2.2,6-2.2h4.2c2.3,0,4.3,0.8,6.2,2.4l2,1.7l-0.1-1.1c0-0.8,0.3-1.5,0.9-2c0.6-0.6,1.2-0.9,2-0.9
		c0.8,0,1.5,0.3,2.1,0.8c0.6,0.6,0.9,1.2,0.9,2v32.4c0,2.5-1,4.6-3,6.3l-2.3,2c-0.6,0.5-1.4,1-2.5,1.4
		C537.8,97.6,536.8,97.8,535.9,97.8z M532.6,57.9h-3.9c-0.8,0-1.7,0.3-2.4,1l-1.8,1.5c-0.7,0.6-1,1.4-1,2.3v9.6
		c0,0.8,0.4,1.5,1.1,2.2l1.9,1.7c0.6,0.5,1.2,0.8,1.9,0.8h4.7c0.7,0,1.4-0.3,2.3-1l4.6-3.9c0.7-0.6,1.1-1.4,1.1-2.3v-4.4
		c0-1.1-0.4-1.9-1.2-2.6l-4.7-4C534.4,58.2,533.5,57.9,532.6,57.9z"/>
	<path class="st1" d="M589.3,63.1v7c0,0.8-0.3,1.5-0.9,2c-0.6,0.6-1.2,0.9-2,0.9H566v1.7c0,1,0.4,1.8,1.3,2.5l1.7,1.4
		c0.9,0.7,1.8,1.1,2.6,1.1h14.9c0.8,0,1.5,0.3,2,0.8c0.6,0.6,0.9,1.2,0.9,2c0,0.8-0.3,1.5-0.9,2c-0.6,0.6-1.3,0.9-2,0.9h-15.2
		c-1,0-2.1-0.2-3.2-0.6c-1.1-0.4-1.9-0.9-2.5-1.3l-2.6-2.3c-0.8-0.6-1.5-1.5-2-2.7c-0.5-1.1-0.8-2.2-0.8-3.2V62.1
		c0-0.8,0.3-1.8,0.9-3.1c0.6-1.3,1.3-2.3,2.2-3l2.4-1.9c1.6-1.3,3.3-1.9,5.3-1.9h8.1c2,0,4,0.8,5.8,2.5l2.2,2.1
		C588.6,58.2,589.3,60.3,589.3,63.1z M566.1,62.6v4.5h17.5v-4c0-1.1-0.3-1.9-1-2.5l-1.7-1.5c-0.9-0.7-1.7-1.1-2.3-1.1h-7.3
		c-0.9,0-1.7,0.3-2.4,0.9l-1.7,1.4C566.5,61,566.1,61.7,566.1,62.6z"/>
	<path class="st1" d="M623.1,85.4h-5.8c-2.4,0-4.4-0.8-6.2-2.5c-1.7-1.7-2.6-3.7-2.6-6.1V58h-3c-0.8,0-1.5-0.3-2-0.8
		c-0.6-0.6-0.8-1.2-0.8-2.1c0-0.8,0.3-1.5,0.8-2c0.6-0.6,1.2-0.8,2-0.8h3v-7.1c0-0.8,0.3-1.5,0.8-2c0.6-0.6,1.2-0.8,2-0.8
		c0.8,0,1.4,0.3,2,0.9c0.6,0.6,0.9,1.3,0.9,2v7.1H626c0.8,0,1.5,0.3,2,0.9c0.6,0.6,0.9,1.3,0.9,2c0,0.8-0.3,1.5-0.9,2
		c-0.6,0.6-1.2,0.8-2,0.8h-11.7v18.7c0,0.8,0.3,1.5,0.9,2c0.6,0.6,1.3,0.9,2.1,0.9h5.6c1.5,0,2.6-0.8,3.1-2.5
		c0.5-1.7,1.5-2.5,2.9-2.5c0.8,0,1.5,0.3,2.1,0.8c0.5,0.6,0.8,1.3,0.8,2.1c0,1.7-0.8,3.5-2.5,5.2C627.7,84.5,625.6,85.4,623.1,85.4z
		"/>
	<path class="st1" d="M653.4,52.2h13.2c2.1,0,3.9,0.6,5.5,1.8c1.6,1.2,2.4,2.4,2.4,3.6c0,0.8-0.3,1.5-0.9,2
		c-0.6,0.5-1.2,0.8-1.9,0.8c-0.9,0-1.8-0.4-2.5-1.2c-0.8-0.8-1.5-1.2-2.4-1.2h-13.1c-1.3,0-1.9,0.5-1.9,1.6c0,0.8,0.4,1.3,1.3,1.7
		l15.4,6.8c1.6,0.7,2.8,1.8,3.8,3.3c1,1.5,1.5,3.2,1.5,5.1c0,2.5-0.9,4.6-2.6,6.3c-1.8,1.7-3.7,2.6-6,2.6h-11.7
		c-2,0-3.9-0.6-5.6-1.8c-1.7-1.2-2.6-2.4-2.6-3.5c0-0.8,0.3-1.4,0.8-2c0.6-0.6,1.3-0.9,2.2-0.9c0.7,0,1.5,0.4,2.4,1.2s2,1.2,3.6,1.2
		H665c0.8,0,1.6-0.3,2.1-1c0.6-0.7,0.9-1.4,0.9-2.3c0-1.3-0.6-2.2-1.9-2.8l-15.5-7c-1.5-0.7-2.6-1.6-3.4-2.9
		c-0.8-1.3-1.2-2.5-1.2-3.9c0-2.1,0.7-3.9,2.1-5.4S651.3,52.2,653.4,52.2z"/>
</g>
</svg>
